<?xml version="1.0" encoding="UTF-8" standalone="no"?>
<!-- Created with Inkscape (http://www.inkscape.org/) -->
<svg xmlns:dc="http://purl.org/dc/elements/1.1/" xmlns:cc="http://creativecommons.org/ns#" xmlns:rdf="http://www.w3.org/1999/02/22-rdf-syntax-ns#" xmlns:svg="http://www.w3.org/2000/svg" xmlns="http://www.w3.org/2000/svg" xmlns:xlink="http://www.w3.org/1999/xlink" xmlns:sodipodi="http://sodipodi.sourceforge.net/DTD/sodipodi-0.dtd" xmlns:inkscape="http://www.inkscape.org/namespaces/inkscape" width="400" height="400" id="svg2" version="1.1" inkscape:version="0.48.0 r9654" sodipodi:docname="kompass.svg" inkscape:export-filename="/home/spktkpkt/Desktop/kompass.png" inkscape:export-xdpi="90" inkscape:export-ydpi="90">
  <defs id="defs4">
    <linearGradient inkscape:collect="always" id="linearGradient4037">
      <stop style="stop-color:#ffffff;stop-opacity:1;" offset="0" id="stop4039"/>
      <stop style="stop-color:#ffffff;stop-opacity:0;" offset="1" id="stop4041"/>
    </linearGradient>
    <linearGradient inkscape:collect="always" id="linearGradient4018">
      <stop style="stop-color:#ffffff;stop-opacity:1;" offset="0" id="stop4020"/>
      <stop style="stop-color:#ffffff;stop-opacity:0;" offset="1" id="stop4022"/>
    </linearGradient>
    <linearGradient inkscape:collect="always" id="linearGradient3970">
      <stop style="stop-color:#000000;stop-opacity:1;" offset="0" id="stop3972"/>
      <stop style="stop-color:#000000;stop-opacity:0;" offset="1" id="stop3974"/>
    </linearGradient>
    <linearGradient inkscape:collect="always" id="linearGradient3962">
      <stop style="stop-color:#ffffff;stop-opacity:1;" offset="0" id="stop3964"/>
      <stop style="stop-color:#ffffff;stop-opacity:0;" offset="1" id="stop3966"/>
    </linearGradient>
    <linearGradient id="linearGradient4886">
      <stop style="stop-color:#0085f2;stop-opacity:1;" offset="0" id="stop4888"/>
      <stop style="stop-color:#9364c8;stop-opacity:1;" offset="1" id="stop4890"/>
    </linearGradient>
    <linearGradient id="linearGradient4789">
      <stop style="stop-color:#ffffff;stop-opacity:0.47488585;" offset="0" id="stop4791"/>
      <stop id="stop4797" offset="0.49404761" style="stop-color:#ffffff;stop-opacity:1;"/>
      <stop style="stop-color:#e8b7ff;stop-opacity:1;" offset="1" id="stop4793"/>
    </linearGradient>
    <linearGradient id="linearGradient4781">
      <stop style="stop-color:#726a00;stop-opacity:1;" offset="0" id="stop4783"/>
      <stop style="stop-color:#ffffff;stop-opacity:1;" offset="1" id="stop4785"/>
    </linearGradient>
    <linearGradient id="linearGradient4731">
      <stop style="stop-color:#000000;stop-opacity:0;" offset="0" id="stop4733"/>
      <stop id="stop4741" offset="0.25" style="stop-color:#000000;stop-opacity:0;"/>
      <stop id="stop4739" offset="0.5" style="stop-color:#000000;stop-opacity:1;"/>
      <stop style="stop-color:#000000;stop-opacity:0;" offset="1" id="stop4735"/>
    </linearGradient>
    <linearGradient id="linearGradient4674">
      <stop id="stop4676" offset="0" style="stop-color:#ffdb3b;stop-opacity:1;"/>
      <stop style="stop-color:#9f8717;stop-opacity:1;" offset="0.25" id="stop4678"/>
      <stop style="stop-color:#ded49b;stop-opacity:1;" offset="0.5" id="stop4680"/>
      <stop id="stop4682" offset="0.77272725" style="stop-color:#dace82;stop-opacity:1;"/>
      <stop id="stop4684" offset="1" style="stop-color:#fff9c9;stop-opacity:1;"/>
    </linearGradient>
    <linearGradient id="linearGradient4638">
      <stop id="stop4640" offset="0" style="stop-color:#ffe572;stop-opacity:1"/>
      <stop style="stop-color:#b39922;stop-opacity:1" offset="0.55663258" id="stop4642"/>
      <stop style="stop-color:#baa93c;stop-opacity:1" offset="0.84354329" id="stop4644"/>
      <stop id="stop4646" offset="0.99999994" style="stop-color:#dace82;stop-opacity:1;"/>
      <stop id="stop4648" offset="1" style="stop-color:#000000;stop-opacity:1"/>
    </linearGradient>
    <linearGradient inkscape:collect="always" id="linearGradient4297">
      <stop style="stop-color:#ffffff;stop-opacity:1;" offset="0" id="stop4299"/>
      <stop style="stop-color:#ffffff;stop-opacity:0;" offset="1" id="stop4301"/>
    </linearGradient>
    <linearGradient id="linearGradient4269">
      <stop style="stop-color:#ffffff;stop-opacity:1;" offset="0" id="stop4271"/>
      <stop style="stop-color:#ffffff;stop-opacity:0;" offset="1" id="stop4273"/>
    </linearGradient>
    <linearGradient id="linearGradient4251">
      <stop style="stop-color:#ffdb3b;stop-opacity:1;" offset="0" id="stop4253"/>
      <stop id="stop4511" offset="0.25" style="stop-color:#9f8717;stop-opacity:1;"/>
      <stop id="stop4509" offset="0.5" style="stop-color:#ded49b;stop-opacity:1;"/>
      <stop style="stop-color:#dace82;stop-opacity:1;" offset="0.75" id="stop4513"/>
      <stop style="stop-color:#fff9c9;stop-opacity:1;" offset="1" id="stop4255"/>
    </linearGradient>
    <radialGradient inkscape:collect="always" xlink:href="#linearGradient4269" id="radialGradient4275" cx="178.92857" cy="186.42857" fx="178.92857" fy="186.42857" r="163.92857" gradientTransform="matrix(1,0,0,1.0152505,0,-2.8431373)" gradientUnits="userSpaceOnUse"/>
    <filter inkscape:collect="always" id="filter4293" x="-0.24193851" width="1.483877" y="-0.20341622" height="1.4068324">
      <feGaussianBlur inkscape:collect="always" stdDeviation="31.461379" id="feGaussianBlur4295"/>
    </filter>
    <radialGradient inkscape:collect="always" xlink:href="#linearGradient4297" id="radialGradient4303" cx="233.16197" cy="373.29282" fx="233.16197" fy="373.29282" r="163.92857" gradientTransform="matrix(1.117647,-0.78096208,0.26982778,0.68064223,-114.88896,229.66015)" gradientUnits="userSpaceOnUse"/>
    <filter inkscape:collect="always" id="filter4314" x="-0.094285714" width="1.1885714" y="-0.165" height="1.33">
      <feGaussianBlur inkscape:collect="always" stdDeviation="11" id="feGaussianBlur4316"/>
    </filter>
    <filter inkscape:collect="always" id="filter4348" x="-0.10616824" width="1.2123365" y="-0.25952237" height="1.5190447">
      <feGaussianBlur inkscape:collect="always" stdDeviation="9.7320887" id="feGaussianBlur4350"/>
    </filter>
    <filter inkscape:collect="always" id="filter4386" x="-0.501756" width="2.003512" y="-0.49421889" height="1.9884378">
      <feGaussianBlur inkscape:collect="always" stdDeviation="68.543454" id="feGaussianBlur4388"/>
    </filter>
    <filter inkscape:collect="always" id="filter4577" x="-0.28908172" width="1.5781634" y="-0.28473929" height="1.5694786">
      <feGaussianBlur inkscape:collect="always" stdDeviation="39.490629" id="feGaussianBlur4579"/>
    </filter>
    <filter inkscape:collect="always" id="filter4622" x="-0.083516484" width="1.167033" y="-0.11483516" height="1.2296703">
      <feGaussianBlur inkscape:collect="always" stdDeviation="7.6556777" id="feGaussianBlur4624"/>
    </filter>
    <radialGradient inkscape:collect="always" xlink:href="#linearGradient4638" id="radialGradient4636" cx="188.32947" cy="203.02309" fx="188.32947" fy="203.02309" r="163.92857" gradientTransform="matrix(1.2218243,-0.96361119,0.64766423,1.2188935,-194.37687,91.910824)" gradientUnits="userSpaceOnUse"/>
    <radialGradient inkscape:collect="always" xlink:href="#linearGradient4251" id="radialGradient4650" gradientUnits="userSpaceOnUse" gradientTransform="matrix(1.9520695,0,1.9879142e-7,2.3180827,-113.20834,231.8785)" cx="165.57211" cy="293.55453" fx="165.57211" fy="293.55453" r="163.92857"/>
    <radialGradient inkscape:collect="always" xlink:href="#linearGradient4674" id="radialGradient4668" gradientUnits="userSpaceOnUse" gradientTransform="matrix(2.3333332,-1.7254107e-8,0,1.0502593,-2.4073313,-52.756417)" cx="81.618454" cy="309.70328" fx="81.618454" fy="309.70328" r="163.92857"/>
    <radialGradient inkscape:collect="always" xlink:href="#linearGradient4251" id="radialGradient4672" gradientUnits="userSpaceOnUse" gradientTransform="matrix(1.1710411,-1.0200763,0.7611768,1.5693481,-167.45345,9.0057963)" cx="130.33305" cy="189.28761" fx="130.33305" fy="189.28761" r="169.67918"/>
    <radialGradient inkscape:collect="always" xlink:href="#linearGradient4731" id="radialGradient4737" cx="94.052994" cy="707.03076" fx="94.052994" fy="707.03076" r="90" gradientTransform="matrix(0.93610282,-0.41604584,0.44444452,0.99999981,-322.27923,44.46189)" gradientUnits="userSpaceOnUse"/>
    <filter inkscape:collect="always" id="filter4777" x="-0.388407" width="1.776814" y="-0.58212843" height="2.1642569">
      <feGaussianBlur inkscape:collect="always" stdDeviation="5.2131661" id="feGaussianBlur4779"/>
    </filter>
    <radialGradient inkscape:collect="always" xlink:href="#linearGradient4781" id="radialGradient4787" cx="205.32227" cy="162.88928" fx="205.32227" fy="162.88928" r="31.408119" gradientTransform="matrix(1,0,0,0.73735212,0,42.782526)" gradientUnits="userSpaceOnUse"/>
    <radialGradient inkscape:collect="always" xlink:href="#linearGradient4789" id="radialGradient4795" cx="200" cy="812.36217" fx="200" fy="812.36217" r="162.5" gradientTransform="matrix(1,0,0,0.75384622,0,199.96602)" gradientUnits="userSpaceOnUse"/>
    <filter inkscape:collect="always" id="filter4811">
      <feGaussianBlur inkscape:collect="always" stdDeviation="3.667814" id="feGaussianBlur4813"/>
    </filter>
    <filter inkscape:collect="always" id="filter4823">
      <feGaussianBlur inkscape:collect="always" stdDeviation="3.6706999" id="feGaussianBlur4825"/>
    </filter>
    <filter inkscape:collect="always" id="filter4859">
      <feGaussianBlur inkscape:collect="always" stdDeviation="10.958438" id="feGaussianBlur4861"/>
    </filter>
    <radialGradient inkscape:collect="always" xlink:href="#linearGradient4886" id="radialGradient4892" cx="178.92857" cy="186.42857" fx="178.92857" fy="186.42857" r="163.92857" gradientTransform="matrix(1,0,0,1.0152505,0,-2.8431373)" gradientUnits="userSpaceOnUse"/>
    <filter inkscape:collect="always" id="filter3867">
      <feGaussianBlur inkscape:collect="always" stdDeviation="2.5029877" id="feGaussianBlur3869"/>
    </filter>
    <filter inkscape:collect="always" id="filter3917" x="-0.24763982" width="1.4952796" y="-0.25795814" height="1.5159163">
      <feGaussianBlur inkscape:collect="always" stdDeviation="2.9923145" id="feGaussianBlur3919"/>
    </filter>
    <filter inkscape:collect="always" id="filter3921" x="-0.30225399" width="1.604508" y="-0.30327512" height="1.6065502">
      <feGaussianBlur inkscape:collect="always" stdDeviation="2.9923145" id="feGaussianBlur3923"/>
    </filter>
    <filter inkscape:collect="always" id="filter3925" x="-0.27878705" width="1.5575741" y="-0.2078176" height="1.4156352">
      <feGaussianBlur inkscape:collect="always" stdDeviation="2.9923145" id="feGaussianBlur3927"/>
    </filter>
    <filter inkscape:collect="always" id="filter3929" x="-0.34727054" width="1.6945411" y="-0.27327073" height="1.5465415">
      <feGaussianBlur inkscape:collect="always" stdDeviation="2.9923145" id="feGaussianBlur3931"/>
    </filter>
    <linearGradient inkscape:collect="always" xlink:href="#linearGradient3962" id="linearGradient3968" x1="204.05521" y1="692.6571" x2="204.05521" y2="689.65131" gradientUnits="userSpaceOnUse"/>
    <linearGradient inkscape:collect="always" xlink:href="#linearGradient3970" id="linearGradient3976" x1="200.68021" y1="682.5321" x2="200.68021" y2="685.17554" gradientUnits="userSpaceOnUse"/>
    <radialGradient inkscape:collect="always" xlink:href="#linearGradient4018" id="radialGradient4024" cx="202.75" cy="74.875" fx="202.75" fy="74.875" r="17.5" gradientTransform="matrix(1,0,0,0.99285714,0,0.53482143)" gradientUnits="userSpaceOnUse"/>
    <radialGradient inkscape:collect="always" xlink:href="#linearGradient4037" id="radialGradient4043" cx="326.25" cy="158.125" fx="326.25" fy="158.125" r="11.5" gradientTransform="matrix(1,0,0,0.88043478,0,18.90625)" gradientUnits="userSpaceOnUse"/>
    <radialGradient inkscape:collect="always" xlink:href="#linearGradient4037" id="radialGradient4045" cx="326.25" cy="158.125" fx="326.25" fy="158.125" r="11.5" gradientTransform="matrix(1,0,0,0.88043478,0,18.90625)" gradientUnits="userSpaceOnUse"/>
    <radialGradient inkscape:collect="always" xlink:href="#linearGradient4037" id="radialGradient4047" cx="326.25" cy="158.125" fx="326.25" fy="158.125" r="11.5" gradientTransform="matrix(1,0,0,0.88043478,0,18.90625)" gradientUnits="userSpaceOnUse"/>
    <radialGradient inkscape:collect="always" xlink:href="#linearGradient4018" id="radialGradient4057" gradientUnits="userSpaceOnUse" gradientTransform="matrix(1,0,0,0.99285714,0,0.53482143)" cx="202.75" cy="74.875" fx="202.75" fy="74.875" r="17.5"/>
    <radialGradient inkscape:collect="always" xlink:href="#linearGradient4018" id="radialGradient4066" gradientUnits="userSpaceOnUse" gradientTransform="matrix(1,0,0,0.99285714,0,0.53482143)" cx="202.75" cy="74.875" fx="202.75" fy="74.875" r="17.5"/>
  </defs>
  <sodipodi:namedview id="base" pagecolor="#ffffff" bordercolor="#666666" borderopacity="1.0" inkscape:pageopacity="0.0" inkscape:pageshadow="2" inkscape:zoom="1" inkscape:cx="220.92888" inkscape:cy="215.29521" inkscape:document-units="px" inkscape:current-layer="layer1" showgrid="false" showborder="true" borderlayer="true" inkscape:showpageshadow="false" inkscape:snap-bbox="true" inkscape:snap-nodes="false" inkscape:snap-global="false" inkscape:window-width="1280" inkscape:window-height="749" inkscape:window-x="0" inkscape:window-y="0" inkscape:window-maximized="1">
    <inkscape:grid type="xygrid" id="grid2985" empspacing="5" visible="true" enabled="true" snapvisiblegridlinesonly="true"/>
  </sodipodi:namedview>
  <g inkscape:label="Ebene 1" inkscape:groupmode="layer" id="layer1" transform="translate(0,-652.36218)">
    <path transform="matrix(1.4247469,0,0,2.4137978,-70.701921,44.601961)" style="opacity:0.8;color:#000000;fill:#000000;fill-opacity:1;fill-rule:nonzero;stroke:none;stroke-width:10;marker:none;visibility:visible;display:inline;overflow:visible;filter:url(#filter4348);enable-background:accumulate" d="m 300,345 c 0,24.85281 -49.24868,45 -110,45 -60.75132,0 -110,-20.14719 -110,-45 0,-24.85281 49.24868,-45 110,-45 60.75132,0 110,20.14719 110,45 z" id="path4326"/>
    <path style="color:#000000;fill:url(#radialGradient4650);fill-opacity:1;stroke:none;stroke-width:20;marker:none;visibility:visible;display:inline;overflow:visible;enable-background:accumulate" d="m 380,822.36216 c 0,88.36557 -80.58875,160.00002 -180,160.00002 -99.41126,0 -180,-71.63445 -180,-160.00002 z" id="path4210" inkscape:connector-curvature="0" sodipodi:nodetypes="cscc"/>
    <path transform="matrix(1.0980392,0,0,0.87124461,3.5294127,654.93729)" style="color:#000000;fill:url(#radialGradient4668);fill-opacity:1;stroke:none;stroke-width:20.00019646;marker:none;visibility:visible;display:inline;overflow:visible;enable-background:accumulate" d="m 342.85715,186.42857 c 0,91.91597 -73.39333,166.42858 -163.92858,166.42858 C 88.393322,352.85715 15,278.34454 15,186.42857 15,94.51261 88.393322,20 178.92857,20 c 90.53525,0 163.92858,74.51261 163.92858,166.42857 z" id="path4666"/>
    <path transform="matrix(0.97603481,0,0,0.72103004,25.359478,677.94158)" style="color:#000000;fill:url(#radialGradient4892);fill-opacity:1;stroke:none;stroke-width:20;marker:none;visibility:visible;display:inline;overflow:visible;enable-background:accumulate" d="m 342.85715,186.42857 c 0,91.91597 -73.39333,166.42858 -163.92858,166.42858 C 88.393322,352.85715 15,278.34454 15,186.42857 15,94.51261 88.393322,20 178.92857,20 c 90.53525,0 163.92858,74.51261 163.92858,166.42857 z" id="path4515"/>
    <path transform="matrix(0.85049834,0,0,0.8756219,33.727575,680.58108)" style="color:#000000;fill:none;stroke:#ffffff;stroke-width:4.63516188;stroke-linecap:butt;stroke-linejoin:round;stroke-miterlimit:4;stroke-dashoffset:0;stroke-opacity:1;marker:none;visibility:visible;display:inline;overflow:visible;enable-background:accumulate" d="M 346,150.5 C 346,206.00462 278.61885,251 195.5,251 112.38115,251 45,206.00462 45,150.5 45,94.995383 112.38115,50 195.5,50 278.61885,50 346,94.995383 346,150.5 z" id="path3871"/>
    <path transform="matrix(0.85049834,0,0,0.8756219,33.727575,680.58108)" style="color:#000000;fill:none;stroke:#000000;stroke-width:4.63516188;stroke-linecap:butt;stroke-linejoin:round;stroke-miterlimit:4;stroke-dashoffset:0;stroke-opacity:0.57539685;marker:none;visibility:visible;display:inline;overflow:visible;filter:url(#filter3867);enable-background:accumulate" d="M 346,150.5 C 346,206.00462 278.61885,251 195.5,251 112.38115,251 45,206.00462 45,150.5 45,94.995383 112.38115,50 195.5,50 278.61885,50 346,94.995383 346,150.5 z" id="path3093"/>
    <path sodipodi:nodetypes="ccccccccccccccccccccccccc" inkscape:connector-curvature="0" id="path4894" d="m 200,689.86216 -8.46051,102.74033 c -2.79025,0.62733 -5.38848,1.55641 -7.7204,2.73276 l -41.17203,-24.47205 33.04529,30.86672 c -0.86599,1.08847 -1.58454,2.23915 -2.14778,3.44328 L 37.5,811.36371 l 136.04457,6.16157 c 0.78761,1.68248 1.88612,3.26695 3.2507,4.71402 l -34.14821,38.62503 47.47025,-31.10995 c 0.43061,0.11545 0.86573,0.21383 1.30608,0.31427 L 200,934.86218 208.57661,830.06865 c 0.44035,-0.10044 0.87547,-0.19882 1.30608,-0.31427 l 47.47025,31.10995 -34.14821,-38.62503 c 1.36458,-1.44707 2.46309,-3.03154 3.2507,-4.71402 L 362.5,811.36371 226.45543,805.1732 c -0.56284,-1.20233 -1.28321,-2.35617 -2.14778,-3.44328 l 33.04529,-30.86672 -41.17203,24.47205 c -2.33254,-1.17754 -4.92899,-2.10516 -7.7204,-2.73276 z" style="color:#000000;fill:#2e3436;fill-opacity:1;stroke:#2e3436;stroke-width:6;marker:none;visibility:visible;display:inline;overflow:visible;enable-background:accumulate;stroke-opacity:1;stroke-miterlimit:4;stroke-dasharray:none;stroke-linejoin:round;opacity:0.29999999999999999"/>
    <path style="color:#000000;fill:url(#radialGradient4795);fill-opacity:1;stroke:none;stroke-width:0;marker:none;visibility:visible;display:inline;overflow:visible;enable-background:accumulate" d="m 200,689.86216 -8.46051,102.74033 c -2.79025,0.62733 -5.38848,1.55641 -7.7204,2.73276 l -41.17203,-24.47205 33.04529,30.86672 c -0.86599,1.08847 -1.58454,2.23915 -2.14778,3.44328 L 37.5,811.36371 l 136.04457,6.16157 c 0.78761,1.68248 1.88612,3.26695 3.2507,4.71402 l -34.14821,38.62503 47.47025,-31.10995 c 0.43061,0.11545 0.86573,0.21383 1.30608,0.31427 L 200,934.86218 208.57661,830.06865 c 0.44035,-0.10044 0.87547,-0.19882 1.30608,-0.31427 l 47.47025,31.10995 -34.14821,-38.62503 c 1.36458,-1.44707 2.46309,-3.03154 3.2507,-4.71402 L 362.5,811.36371 226.45543,805.1732 c -0.56284,-1.20233 -1.28321,-2.35617 -2.14778,-3.44328 l 33.04529,-30.86672 -41.17203,24.47205 c -2.33254,-1.17754 -4.92899,-2.10516 -7.7204,-2.73276 z" id="path4148" inkscape:connector-curvature="0" sodipodi:nodetypes="ccccccccccccccccccccccccc"/>
    <path transform="matrix(1.0869561,0,0,0.9876545,-27.119432,656.18931)" style="color:#000000;fill:url(#radialGradient4047);fill-opacity:1;fill-rule:nonzero;stroke:none;stroke-width:1;marker:none;visibility:visible;display:inline;overflow:visible;enable-background:accumulate" d="m 337.75,158.125 c 0,5.59188 -5.14873,10.125 -11.5,10.125 -6.35127,0 -11.5,-4.53312 -11.5,-10.125 0,-5.59188 5.14873,-10.125 11.5,-10.125 6.35127,0 11.5,4.53312 11.5,10.125 z" id="path4031"/>
    <path sodipodi:nodetypes="cccc" inkscape:connector-curvature="0" id="path3933" d="m 200,689.86216 -8.46051,102.74033 16.92102,0 z" style="color:#000000;fill:#8ae234;fill-opacity:1;stroke:none;stroke-width:0;marker:none;visibility:visible;display:inline;overflow:visible;enable-background:accumulate;opacity:0"/>
    <g transform="matrix(0,1.2162514,-0.82219844,0,0,0)" style="font-size:25.17028618px;font-style:italic;font-variant:normal;font-weight:500;font-stretch:normal;text-align:start;line-height:125%;letter-spacing:0px;word-spacing:0px;writing-mode:lr-tb;text-anchor:start;fill:#000000;fill-opacity:1;stroke:none;font-family:URW Chancery L;-inkscape-font-specification:URW Chancery L Medium Italic" id="text4053">
      <path d="m 667.67121,-398.7754 1.43471,-5.71366 0.78028,0 c 1.05715,-0.0503 1.83743,-0.0755 1.98845,-0.0755 0.98164,0 1.15784,0.17619 1.83743,1.83743 l 1.66124,-1.66124 c -0.0755,-0.55374 -0.27687,-0.83062 -0.70477,-0.98164 l -5.38644,0.10068 0.15102,-0.52857 -1.76192,0.52857 c -2.41634,0.0252 -3.95173,0.50341 -5.38644,1.63607 -1.25851,1.00681 -1.81226,2.01362 -1.81226,3.32248 0,0.65443 0.10068,1.15783 0.45307,2.03879 l 1.81226,-1.20817 c -0.22653,-0.80545 -0.32722,-1.45988 -0.32722,-2.08914 0,-1.96328 1.40954,-2.76873 4.8327,-2.86941 l -1.40954,5.66332 c -0.42789,0.42789 -0.55374,0.57891 -0.98164,1.08232 l 0.70477,0 c -0.10068,0.37755 -0.17619,0.70477 -0.27687,1.00681 -0.95647,3.87622 -1.23335,4.30412 -3.29731,4.80752 l -0.95647,0.83062 c 0.70477,0.0252 1.23334,0.0252 1.40953,0.0252 l 2.26533,0.0252 c 0.75511,0 1.43471,0.0252 2.01362,0.0503 3.0456,0.10069 3.07078,0.10069 4.1531,0.10069 1.30885,0 1.66124,-0.15103 2.7939,-1.18301 1.15783,-1.03198 1.58573,-1.63607 1.58573,-2.21498 0,-0.12585 -0.0252,-0.32722 -0.10068,-0.57892 l -1.91294,0.70477 c 0.0755,0.52857 0.10068,0.72994 0.10068,0.95647 0,0.95647 -0.32722,1.08232 -2.74356,1.08232 l -6.54428,0 c 2.44152,-2.24015 2.46669,-2.2905 3.37282,-5.73882 1.28368,-0.0755 1.43471,-0.0755 2.03879,-0.12585 0.55375,-0.0252 0.9313,-0.0504 1.08233,-0.0504 0.10068,-0.0252 0.37755,-0.0252 0.67959,-0.0503 0.45307,-0.32721 0.50341,-0.37755 0.95648,-0.72993 l -4.50549,0" style="" id="path4102"/>
    </g>
    <path transform="matrix(0.97603481,0,0,0.76442533,25.359478,667.07367)" style="color:#000000;fill:url(#radialGradient4275);fill-opacity:1;stroke:none;stroke-width:20;marker:none;visibility:visible;display:inline;overflow:visible;enable-background:accumulate" d="m 342.85715,186.42857 c 0,91.91597 -73.39333,166.42858 -163.92858,166.42858 C 88.393322,352.85715 15,278.34454 15,186.42857 15,94.51261 88.393322,20 178.92857,20 c 90.53525,0 163.92858,74.51261 163.92858,166.42857 z" id="path4144"/>
    <path transform="matrix(1.0869561,0,0,0.9876545,-282.11943,656.18931)" style="color:#000000;fill:url(#radialGradient4045);fill-opacity:1;fill-rule:nonzero;stroke:none;stroke-width:1;marker:none;visibility:visible;display:inline;overflow:visible;enable-background:accumulate" d="m 337.75,158.125 c 0,5.59188 -5.14873,10.125 -11.5,10.125 -6.35127,0 -11.5,-4.53312 -11.5,-10.125 0,-5.59188 5.14873,-10.125 11.5,-10.125 6.35127,0 11.5,4.53312 11.5,10.125 z" id="path4033"/>
    <g transform="matrix(0,-1.2162514,0.82219844,0,0,0)" style="font-size:25.17028618px;font-style:italic;font-variant:normal;font-weight:500;font-stretch:normal;text-align:start;line-height:125%;letter-spacing:0px;word-spacing:0px;writing-mode:lr-tb;text-anchor:start;fill:#000000;fill-opacity:1;stroke:none;font-family:URW Chancery L;-inkscape-font-specification:URW Chancery L Medium Italic" id="text4075">
      <path d="m -674.00153,96.40891 7.55108,-11.100096 c -0.0503,3.020431 -0.32721,9.313008 -0.55374,11.603502 l 1.6109,-0.528576 c 0.85579,-1.308854 1.15783,-1.736752 2.76873,-3.725203 4.75718,-5.8395 6.41842,-8.708921 6.41842,-11.175607 0,-0.679597 -0.10068,-1.082323 -0.37755,-1.636068 -0.35239,-0.201362 -0.4279,-0.226533 -1.00681,-0.402725 -0.70477,0.327213 -1.00682,0.503406 -1.6109,1.031982 0.67959,0.704767 0.9313,1.359196 0.9313,2.391177 0,1.107491 -0.4279,2.49186 -1.20818,4.027246 -0.98164,1.887769 -2.36601,3.775546 -5.41161,7.324553 0.0755,-1.157832 0.12585,-1.938112 0.12585,-2.214985 l 0.15103,-3.549011 c 0.0503,-1.208172 0.12585,-2.693222 0.22653,-4.42997 0.0503,-0.654427 0.10068,-1.308855 0.12585,-1.963282 l -1.45988,0.578916 c -1.15783,1.963281 -5.53746,8.457219 -7.42523,11.024586 0.27687,-2.038791 1.25851,-7.576259 1.8626,-10.596691 0.52858,-0.176192 0.83062,-0.352384 1.30885,-0.805449 -4.88303,0.05034 -5.18508,0.05034 -6.0912,0.352384 -2.16465,0.704767 -3.57419,2.44152 -3.57419,4.42997 0,0.830619 0.20137,1.535389 0.62926,2.265326 l 1.88777,-1.183003 c -0.57891,-0.880959 -0.83062,-1.610899 -0.83062,-2.466688 0,-1.031981 0.50341,-1.812261 1.43471,-2.139475 0.60409,-0.226532 1.20818,-0.276873 3.09595,-0.302043 -0.27688,2.139472 -0.8558,5.713663 -2.21499,13.692636 l 1.63607,-0.503406" style="" id="path4097"/>
    </g>
    <path style="opacity:0.72862453;fill:#000000;fill-opacity:1;stroke:none;filter:url(#filter4622)" d="M 297.56396,81.301101 187.96875,142.6875 220.8125,170.90625 z M 179.1875,149.09375 75.328728,242.10801 212.03125,177.3125 z" transform="matrix(0.96531625,0,0,1.0123806,25.020315,648.65563)" id="path4601" inkscape:connector-curvature="0" sodipodi:nodetypes="cccccccc"/>
    <path transform="matrix(1.3043473,0,0,1.2345677,-225.54331,704.64616)" style="color:#000000;fill:url(#radialGradient4043);fill-opacity:1;fill-rule:nonzero;stroke:none;stroke-width:1;marker:none;visibility:visible;display:inline;overflow:visible;enable-background:accumulate" d="m 337.75,158.125 c 0,5.59188 -5.14873,10.125 -11.5,10.125 -6.35127,0 -11.5,-4.53312 -11.5,-10.125 0,-5.59188 5.14873,-10.125 11.5,-10.125 6.35127,0 11.5,4.53312 11.5,10.125 z" id="path4035"/>
    <g transform="scale(-1.2162514,-0.82219844)" style="font-size:28.35093689px;font-style:italic;font-variant:normal;font-weight:500;font-stretch:normal;text-align:start;line-height:125%;letter-spacing:0px;word-spacing:0px;writing-mode:lr-tb;text-anchor:start;fill:#000000;fill-opacity:1;stroke:none;font-family:URW Chancery L;-inkscape-font-specification:URW Chancery L Medium Italic" id="text4062">
      <path d="m -170.52096,-1090.0501 -1.24744,2.9485 c 0.99228,1.3325 2.32478,1.9562 4.16759,1.9562 4.33768,0 8.59033,-3.5439 8.59033,-7.1444 0,-1.1624 -0.45362,-1.7578 -2.55158,-3.4022 -2.06962,-1.616 -2.40983,-2.0979 -2.40983,-3.317 0,-1.8428 1.38919,-3.4305 3.0619,-3.4305 1.19073,0 1.616,0.5103 1.92786,2.3248 l 1.87116,-1.3325 c -0.1701,-1.5593 -1.02063,-2.3248 -2.52323,-2.3248 -2.92014,0 -6.23721,3.232 -6.23721,6.0388 0,1.2758 0.59537,2.2113 2.23973,3.4871 1.92786,1.531 2.43818,2.2965 2.43818,3.6006 0,2.2114 -2.12633,4.1676 -4.59285,4.1676 -1.21909,0 -2.46654,-0.5387 -3.23201,-1.3892 -0.59537,-0.6521 -0.82218,-1.2474 -1.04899,-2.4949 l -0.45361,0.3119" style="" id="path4093"/>
    </g>
    <g id="g4593" transform="matrix(1.0633775,0.04123005,-0.04308529,0.98968224,22.109934,5.0841699)">
      <path style="fill:#cc0000;stroke:none" d="m 220,817.56218 -32,-27.2 112,-68 z" id="path4216" inkscape:connector-curvature="0"/>
      <path id="path4247" d="m 300,722.36218 -112,68 16,13.6 z" style="fill:#ef2929;stroke:none" inkscape:connector-curvature="0"/>
      <path inkscape:connector-curvature="0" id="path4218" d="m 212,824.36218 -32,-27.2 -80.000001,95.2 z" style="fill:#d3d3d3;stroke:none;fill-opacity:1"/>
      <path id="path4240" d="m 180,797.16218 -80.000001,95.2 96.000001,-81.6 z" style="fill:#ededed;fill-opacity:1;stroke:none" inkscape:connector-curvature="0"/>
    </g>
    <path transform="matrix(0.97603481,0,0,0.72103004,25.359477,677.94158)" style="color:#000000;fill:none;stroke:#000000;stroke-width:7.15223742;stroke-miterlimit:4;stroke-opacity:0.5041322;marker:none;visibility:visible;display:inline;overflow:visible;filter:url(#filter4811);enable-background:accumulate" d="m 342.85715,186.42857 c 0,91.91597 -73.39333,166.42858 -163.92858,166.42858 C 88.393322,352.85715 15,278.34454 15,186.42857 15,94.51261 88.393322,20 178.92857,20 c 90.53525,0 163.92858,74.51261 163.92858,166.42857 z" id="path4801"/>
    <path transform="matrix(1.0065359,0,0,0.75107296,19.901961,672.34072)" style="color:#000000;fill:none;stroke:url(#radialGradient4672);stroke-width:11.50122929;stroke-miterlimit:4;stroke-opacity:1;marker:none;visibility:visible;display:inline;overflow:visible;enable-background:accumulate" d="m 342.85715,186.42857 c 0,91.91597 -73.39333,166.42858 -163.92858,166.42858 C 88.393322,352.85715 15,278.34454 15,186.42857 15,94.51261 88.393322,20 178.92857,20 c 90.53525,0 163.92858,74.51261 163.92858,166.42857 z" id="path4249"/>
    <path style="color:#000000;fill:url(#radialGradient4737);fill-opacity:1;stroke:none;stroke-width:20;marker:none;visibility:visible;display:inline;overflow:visible;enable-background:accumulate;opacity:0.18587361" d="m 200,682.36218 c -94.80481,0 -170,60.17435 -170,130 l 10,10 c 0,-70 60,-130 170,-130 z" id="path4686" inkscape:connector-curvature="0" sodipodi:nodetypes="ccccc"/>
    <path transform="matrix(1.037037,0,0,0.78111588,14.444445,666.73986)" style="opacity:0.91078066;color:#000000;fill:url(#radialGradient4303);fill-opacity:1;stroke:none;stroke-width:20;marker:none;visibility:visible;display:inline;overflow:visible;enable-background:accumulate" d="m 342.85715,186.42857 c 0,91.91597 -73.39333,166.42858 -163.92858,166.42858 C 88.393322,352.85715 15,278.34454 15,186.42857 15,94.51261 88.393322,20 178.92857,20 c 90.53525,0 163.92858,74.51261 163.92858,166.42857 z" id="path4277"/>
    <path transform="matrix(0.84999998,0,0,0.71942454,27.787505,670.99527)" style="color:#000000;fill:url(#radialGradient4066);fill-opacity:1;fill-rule:nonzero;stroke:none;stroke-width:1;marker:none;visibility:visible;display:inline;overflow:visible;enable-background:accumulate" d="m 220.25,74.875 c 0,9.595948 -7.83502,17.375 -17.5,17.375 -9.66498,0 -17.5,-7.779052 -17.5,-17.375 0,-9.595948 7.83502,-17.375 17.5,-17.375 9.66498,0 17.5,7.779052 17.5,17.375 z" id="path4012"/>
    <g transform="scale(1.2162514,0.82219844)" style="font-size:18.22604179px;font-style:italic;font-variant:normal;font-weight:500;font-stretch:normal;text-align:start;line-height:125%;letter-spacing:0px;word-spacing:0px;writing-mode:lr-tb;text-anchor:start;fill:#000000;fill-opacity:1;stroke:none;font-family:URW Chancery L;-inkscape-font-specification:URW Chancery L Medium Italic" id="text4014">
      <path d="m 156.56856,886.29871 c 0.49211,0.0364 0.74727,0.0547 1.00244,0.0547 0.78372,0 1.27582,-0.10935 1.7497,-0.40097 0.89307,-0.52855 1.80438,-1.84083 2.38761,-3.37182 0.29162,-0.78372 0.40097,-1.18469 1.18469,-4.33779 l 0.67437,2.82503 c 0.52855,2.26003 0.96598,3.59053 1.58566,4.8299 1.11179,2.26003 2.71568,3.37182 4.86635,3.37182 0.92953,0 1.58567,-0.16403 2.40584,-0.63791 l -0.43742,-1.62212 c -0.25517,0.60146 -0.38275,0.85663 -0.61969,1.13002 -0.32807,0.40097 -0.78372,0.63791 -1.23937,0.63791 -1.14824,0 -2.20535,-0.89308 -3.13488,-2.661 0.30984,-1.56744 0.47388,-2.27826 0.92953,-4.19199 0.78372,-3.17133 1.18469,-4.48361 1.76793,-5.68653 0.38274,-0.76549 0.82017,-1.05711 1.65856,-1.05711 0.12759,0 0.23694,0 0.49211,0.0364 l 0.67436,-1.22114 c -0.21871,-0.0182 -0.4192,-0.0364 -0.56501,-0.0364 -0.76549,0 -1.58566,0.52855 -2.53342,1.64034 -0.87484,1.02066 -1.20292,1.95019 -2.09599,5.88701 -0.18226,0.85662 -0.38275,1.71325 -0.58323,2.5881 -0.0182,0.0911 -0.10936,0.47388 -0.27339,1.03888 -0.87485,-1.74969 -1.11179,-2.46052 -3.04375,-9.67802 l -0.61969,0.565 c -0.43742,-0.0364 -0.67436,-0.0547 -1.00243,-0.0547 -1.09356,0 -1.7497,0.20049 -2.40584,0.71082 -1.16646,0.9113 -1.96841,2.22358 -1.96841,3.22601 0,0.45565 0.12758,0.92953 0.45565,1.60389 l 1.2576,-0.85662 c -0.45565,-0.96598 -0.58324,-1.38518 -0.58324,-1.84083 0,-0.54678 0.30985,-1.03889 0.82018,-1.31228 0.43742,-0.23694 0.87485,-0.30984 1.69502,-0.30984 0.38274,0 0.71081,0 1.4034,0.0364 -0.85662,3.66343 -1.54921,5.95992 -2.15067,7.03525 -0.38275,0.67437 -0.78372,0.87485 -1.7497,0.87485 -0.34629,0 -0.61969,-0.0182 -1.13002,-0.0729 l -0.87485,1.2576" style="" id="path4086"/>
    </g>
    <path style="color:#000000;fill:#ffffff;fill-opacity:1;stroke:none;stroke-width:20;marker:none;visibility:visible;display:inline;overflow:visible;filter:url(#filter4314);enable-background:accumulate" d="M 193.67101,702.36218 C 114.32369,702.36218 50,744.48817 50,796.45322 c 0,25.66889 15.698884,48.93302 41.146953,65.90896 -4.748286,-9.34475 -7.34201,-19.33075 -7.34201,-29.7201 0,-51.96505 64.323697,-94.09104 143.671007,-94.09104 40.15254,0 76.45413,10.79131 102.52405,28.18208 -19.00152,-37.39549 -72.84556,-64.37094 -136.32899,-64.37094 z" id="path4305" inkscape:connector-curvature="0" transform="matrix(0.96153846,0,0,0.93984963,7.3076923,47.059375)"/>
    <path transform="matrix(0.19326953,0,0,0.15313579,165.41856,783.81329)" style="color:#000000;fill:#000000;fill-opacity:1;stroke:none;stroke-width:26.03504562;marker:none;visibility:visible;display:inline;overflow:visible;filter:url(#filter4577);enable-background:accumulate" d="m 342.85715,186.42857 c 0,91.91597 -73.39333,166.42858 -163.92858,166.42858 C 88.393322,352.85715 15,278.34454 15,186.42857 15,94.51261 88.393322,20 178.92857,20 c 90.53525,0 163.92858,74.51261 163.92858,166.42857 z" id="path4563"/>
    <path transform="matrix(0.18300654,0,0,0.15021459,167.2549,779.35789)" style="color:#000000;fill:url(#radialGradient4636);fill-opacity:1;stroke:none;stroke-width:26.03504562;marker:none;visibility:visible;display:inline;overflow:visible;enable-background:accumulate" d="m 342.85715,186.42857 c 0,91.91597 -73.39333,166.42858 -163.92858,166.42858 C 88.393322,352.85715 15,278.34454 15,186.42857 15,94.51261 88.393322,20 178.92857,20 c 90.53525,0 163.92858,74.51261 163.92858,166.42857 z" id="path4628"/>
    <path transform="matrix(0.17347528,0,0,0.14528185,168.96031,780.27749)" style="opacity:0.57249068;color:#000000;fill:none;stroke:#ffffff;stroke-width:25.19622612;stroke-miterlimit:4;stroke-opacity:0.68181817;marker:none;visibility:visible;display:inline;overflow:visible;filter:url(#filter4859);enable-background:accumulate" d="m 342.85715,186.42857 c 0,91.91597 -73.39333,166.42858 -163.92858,166.42858 C 88.393322,352.85715 15,278.34454 15,186.42857 15,94.51261 88.393322,20 178.92857,20 c 90.53525,0 163.92858,74.51261 163.92858,166.42857 z" id="path4829"/>
    <path transform="matrix(0.06089525,0,0,0.04532642,179.1041,783.91204)" style="color:#000000;fill:#ffffff;fill-opacity:1;stroke:none;stroke-width:20;marker:none;visibility:visible;display:inline;overflow:visible;filter:url(#filter4386);enable-background:accumulate" d="m 342.85715,186.42857 c 0,91.91597 -73.39333,166.42858 -163.92858,166.42858 C 88.393322,352.85715 15,278.34454 15,186.42857 15,94.51261 88.393322,20 178.92857,20 c 90.53525,0 163.92858,74.51261 163.92858,166.42857 z" id="path4352"/>
    <path transform="matrix(0.23444022,-0.10765434,0.08343342,0.13043517,52.59659,737.30777)" style="color:#000000;fill:#ffffff;fill-opacity:1;stroke:none;stroke-width:20;marker:none;visibility:visible;display:inline;overflow:visible;filter:url(#filter4293);enable-background:accumulate" d="m 342.85715,186.42857 c 0,91.91597 -73.39333,166.42858 -163.92858,166.42858 C 88.393322,352.85715 15,278.34454 15,186.42857 15,94.51261 88.393322,20 178.92857,20 c 90.53525,0 163.92858,74.51261 163.92858,166.42857 z" id="path4279"/>
    <path transform="matrix(0.89731138,0,0,0.65624941,39.445355,690.01854)" style="color:#000000;fill:none;stroke:#ffffff;stroke-width:13.03148556;stroke-miterlimit:4;stroke-opacity:0.68181817;marker:none;visibility:visible;display:inline;overflow:visible;filter:url(#filter4823);enable-background:accumulate" d="m 342.85715,186.42857 c 0,91.91597 -73.39333,166.42858 -163.92858,166.42858 C 88.393322,352.85715 15,278.34454 15,186.42857 15,94.51261 88.393322,20 178.92857,20 c 90.53525,0 163.92858,74.51261 163.92858,166.42857 z" id="path4799"/>
    <path style="fill:url(#radialGradient4787);fill-opacity:1;stroke:none;filter:url(#filter4777)" d="m 221.42857,152.14286 c 0,0 -4.28571,22.85714 -26.42857,21.42857 -22.14286,-1.42857 26.42857,-21.42857 26.42857,-21.42857 z" id="path4743" inkscape:connector-curvature="0" transform="matrix(1.2230108,0,0,0.99207295,-46.111352,653.83778)"/>
  </g>
  <metadata>
    <rdf:RDF>
      <cc:Work>
        <dc:format>image/svg+xml</dc:format>
        <dc:type rdf:resource="http://purl.org/dc/dcmitype/StillImage"/>
        <cc:license rdf:resource="http://creativecommons.org/licenses/publicdomain/"/>
        <dc:publisher>
          <cc:Agent rdf:about="http://openclipart.org/">
            <dc:title>Open Clip Art Library</dc:title>
          </cc:Agent>
        </dc:publisher>
        <dc:title>Compass</dc:title>
        <dc:date>2011-05-16T02:40:15</dc:date>
        <dc:description>...read about WebKit...can't sleep...</dc:description>
        <dc:source>http://openclipart.org/detail/138955/compass-by-spktkpkt</dc:source>
        <dc:creator>
          <cc:Agent>
            <dc:title>spktkpkt</dc:title>
          </cc:Agent>
        </dc:creator>
        <dc:subject>
          <rdf:Bag>
            <rdf:li>clip art</rdf:li>
            <rdf:li>clipart</rdf:li>
            <rdf:li>icon</rdf:li>
            <rdf:li>navigation</rdf:li>
          </rdf:Bag>
        </dc:subject>
      </cc:Work>
      <cc:License rdf:about="http://creativecommons.org/licenses/publicdomain/">
        <cc:permits rdf:resource="http://creativecommons.org/ns#Reproduction"/>
        <cc:permits rdf:resource="http://creativecommons.org/ns#Distribution"/>
        <cc:permits rdf:resource="http://creativecommons.org/ns#DerivativeWorks"/>
      </cc:License>
    </rdf:RDF>
  </metadata>
</svg>
