<?xml version="1.0" encoding="UTF-8" standalone="no"?>
<!-- Created with Inkscape (http://www.inkscape.org/) -->
<svg xmlns:dc="http://purl.org/dc/elements/1.1/" xmlns:cc="http://creativecommons.org/ns#" xmlns:rdf="http://www.w3.org/1999/02/22-rdf-syntax-ns#" xmlns:svg="http://www.w3.org/2000/svg" xmlns="http://www.w3.org/2000/svg" xmlns:sodipodi="http://sodipodi.sourceforge.net/DTD/sodipodi-0.dtd" xmlns:inkscape="http://www.inkscape.org/namespaces/inkscape" width="226.51767" height="270.66068" id="svg4381" sodipodi:version="0.32" inkscape:version="0.45+0.46pre0+devel" version="1.0" sodipodi:docbase="/home/moni" sodipodi:docname="lalolalo_backpack.svg" inkscape:output_extension="org.inkscape.output.svg.inkscape">
  <defs id="defs4383">
    <inkscape:perspective sodipodi:type="inkscape:persp3d" inkscape:vp_x="-50 : 600 : 1" inkscape:vp_y="0 : 1000 : 0" inkscape:vp_z="700 : 600 : 1" inkscape:persp3d-origin="300 : 400 : 1" id="perspective2740"/>
    <linearGradient id="linearGradient11889">
      <stop style="stop-color:#ffd42a;stop-opacity:1;" offset="0" id="stop11891"/>
      <stop style="stop-color:#fff8db;stop-opacity:1;" offset="1" id="stop11893"/>
    </linearGradient>
  </defs>
  <sodipodi:namedview id="base" pagecolor="#ffffff" bordercolor="#666666" borderopacity="1.0" gridtolerance="10000" guidetolerance="10" objecttolerance="10" inkscape:pageopacity="0.0" inkscape:pageshadow="2" inkscape:zoom="1.9175301" inkscape:cx="31.904175" inkscape:cy="136.16714" inkscape:document-units="px" inkscape:current-layer="layer1" inkscape:window-width="1280" inkscape:window-height="750" inkscape:window-x="-8" inkscape:window-y="-8" showgrid="false"/>
  <g inkscape:label="Layer 1" inkscape:groupmode="layer" id="layer1" transform="translate(-235.3126,-202.7462)">
    <path style="fill:#3771c8;fill-rule:evenodd;stroke:#000000;stroke-width:3;stroke-linecap:butt;stroke-linejoin:miter;stroke-miterlimit:4;stroke-dasharray:none;stroke-opacity:1" d="M 257.39753,270.50613 C 259.50944,266.91213 253.23536,234.25074 266.11832,227.22593 C 279.90928,219.70601 284.42456,222.08796 287.43889,218.60642 C 289.93715,215.72094 288.7941,212.10577 295.94151,209.86633 C 303.95699,207.3549 327.16525,203.63943 353.53778,204.3304 C 379.78214,205.01801 383.5828,207.8483 395.77152,212.24608 C 402.33944,214.61582 412.12585,217.98836 413.46213,221.15721 C 416.23193,227.72551 420.86634,223.19632 422.82238,227.64922 C 424.72576,231.98223 430.18289,243.91252 431.12811,256.15327 C 436.65665,256.16434 441.6561,256.3723 445.48781,260.20401 C 449.31952,264.03572 453.10182,269.49622 454.111,281.39902 C 454.8108,289.65218 456.412,309.86847 456.775,322.58439 C 457.011,330.85422 457.8295,346.43231 455.921,350.36247 C 454.7709,352.73105 445.12667,361.53429 444.21796,363.32433 C 443.94417,365.11437 449.08289,362.53641 454.5084,366.41161 C 459.4131,369.91477 459.7092,376.23805 459.9681,380.38124 C 460.3612,386.67269 460.8317,413.17139 459.012,417.30422 C 456.348,423.35449 447.02373,428.7366 441.70221,430.72936 C 442.41251,441.18782 438.25505,442.8416 438.25505,442.8416 C 438.25505,442.8416 437.48949,453.45869 434.95614,456.91335 C 432.07681,460.83982 425.43623,464.42034 414.62985,467.33181 C 391.02419,473.69172 349.16425,471.52709 342.7797,471.38256 C 333.43052,471.17093 313.17314,470.30589 304.25832,467.97413 C 299.88957,466.83144 288.49341,460.31808 288.49341,460.31808 C 288.49341,460.31808 281.0564,455.20913 277.86331,453.29328 C 274.67021,451.37743 270.60019,449.76643 268.82479,447.82191 C 265.06653,443.70568 263.80631,439.97487 263.80631,439.97487 C 263.80631,439.97487 254.55485,441.02521 249.79341,432.11082 C 247.62377,428.0488 240.66915,401.40727 239.83646,394.36544 C 239.3803,390.50776 238.58281,360.2813 239.86005,356.44958 C 241.13729,352.61786 251.78083,341.41911 250.39531,339.595 C 248.4394,337.01994 237.47286,324.19524 236.86759,311.2414 C 236.40935,301.48496 238.92551,290.23199 240.32698,286.44395 C 241.00232,284.61856 243.50332,278.88808 248.57488,273.76868 C 253.64644,268.64928 253.73238,271.73735 257.39753,270.50613 z" id="path2893" sodipodi:nodetypes="cssssssscsssscsssccsssscsscsssssssc"/>
    <path style="fill:#986601;fill-opacity:1;fill-rule:evenodd;stroke:none;stroke-width:3;stroke-linecap:butt;stroke-linejoin:miter;stroke-miterlimit:4;stroke-dasharray:none;stroke-opacity:1" d="M 403.30561,256.00361 C 417.19516,257.8217 436.18973,254.62209 443.28138,259.98993 C 447.34294,263.06422 452.41487,269.49921 453.42407,281.402 C 454.1238,289.65517 455.7251,309.87146 456.088,322.58738 C 456.3241,330.8572 457.1426,346.43529 455.2341,350.36545 C 454.5324,351.81043 448.62487,358.41005 442.75631,363.63826 C 438.74037,363.85592 432.40887,363.32952 402.60662,360.2918 C 406.40558,334.73405 403.55555,269.38929 403.30561,256.00361 z" id="path16531" sodipodi:nodetypes="cssssccc"/>
    <path style="fill:#986601;fill-opacity:1;fill-rule:evenodd;stroke:none;stroke-width:3;stroke-linecap:butt;stroke-linejoin:miter;stroke-miterlimit:4;stroke-dasharray:none;stroke-opacity:1" d="M 420.3992,361.45721 C 431.45804,362.43043 436.59694,362.75703 443.18758,363.42332 C 444.86046,363.59244 451.15464,364.37302 453.53609,366.31652 C 458.9317,370.71988 458.7369,376.14297 458.9957,380.28616 C 459.3888,386.57761 459.7059,412.76933 457.8862,416.90216 C 456.5295,419.98332 451.54897,424.03157 446.59916,427.40017 C 444.18166,429.0454 431.3609,433.26666 421.18804,432.89123 C 419.38077,422.81545 419.76366,364.18065 420.3992,361.45721 z" id="path17420" sodipodi:nodetypes="cssssscc"/>
    <path style="fill:#556b2f;fill-rule:evenodd;stroke:#000000;stroke-width:2;stroke-linecap:butt;stroke-linejoin:miter;stroke-miterlimit:4;stroke-dasharray:none;stroke-opacity:1" d="M 329.10622,469.47411 C 308.19885,468.75042 300.62483,466.23665 293.33465,462.43676 C 290.38869,460.90122 283.54601,456.26005 277.77493,452.74139 C 274.9306,451.00717 271.85529,449.6489 269.68365,447.93282 C 267.20574,445.97474 264.23543,442.58587 263.09956,439.08765 C 261.8132,435.12593 254.67535,302.7082 256.90427,269.34752 C 257.48492,260.6567 256.9344,255.94616 257.06111,250.23462 C 257.3471,237.34507 258.91355,233.31041 261.35829,229.07717 C 263.47105,225.4188 275.2183,220.54227 279.13049,221.61207 C 282.89419,222.64126 290.0914,229.33418 292.59594,233.946 C 298.01363,243.92206 299.72137,248.90768 302.76135,259.94676 C 307.96684,278.84946 309.43522,289.55034 310.55613,299.83494 C 311.66696,310.02719 313.21666,316.24852 314.33112,319.58459 C 315.44557,322.92066 313.38648,344.34993 312.65942,355.29787 C 312.07986,364.02484 310.28489,375.16924 310.01479,386.38182 C 309.73833,397.85795 309.80173,402.63138 309.86361,409.63913 C 309.9165,415.51084 309.34275,420.08237 310.04137,428.27747 C 310.6708,435.661 312.72991,442.96248 314.59524,448.01032 C 318.86955,459.5773 329.66346,470.58613 329.10622,469.47411 z" id="path3798" sodipodi:nodetypes="csssssssssssssssssc"/>
    <path style="fill:#986601;fill-rule:evenodd;stroke:#000000;stroke-width:1.01376569px;stroke-linecap:butt;stroke-linejoin:miter;stroke-opacity:1" d="M 249.47609,272.45077 C 241.26114,279.53226 235.88875,293.54673 236.28065,307.50858 C 236.71382,322.7701 247.13145,337.05756 252.72452,339.23126 C 256.49587,340.69696 294.22384,339.56707 294.22384,339.56707 C 294.22384,339.56707 299.15181,338.61157 301.67624,336.01716 C 304.20068,333.42274 304.66808,333.04859 305.58693,331.10469 C 307.11911,327.86328 306.48748,319.92364 306.48748,318.44112 C 306.48748,316.95859 305.19294,304.50497 304.44249,298.67129 C 304.11162,296.09925 302.6706,286.00557 301.58869,278.87575 C 301.1139,275.7469 299.12471,271.03038 295.51838,270.28911 C 291.91204,269.54786 266.15488,269.54786 264.71234,269.54786 C 263.26981,269.54786 252.57711,269.77762 249.47609,272.45077 z" id="path5572" sodipodi:nodetypes="csscssssssss"/>
    <path style="fill:#986601;fill-rule:evenodd;stroke:#000000;stroke-width:1.01376569px;stroke-linecap:butt;stroke-linejoin:miter;stroke-opacity:1" d="M 251.29673,275.03535 C 243.22452,282.16573 239.67559,296.00807 240.60984,308.96923 C 241.68771,323.92295 246.54097,331.93881 253.68384,336.34729 C 258.83589,339.52707 281.11013,337.8768 281.11013,337.8768 C 281.11013,337.8768 293.87986,337.47148 297.01434,335.71514 C 298.88767,334.66546 301.25357,333.99094 303.50522,329.37024 C 305.07537,326.14808 304.6524,320.29367 304.6524,318.81115 C 304.6524,317.32862 303.36355,308.38036 302.7575,300.83729 C 302.34038,295.64569 300.49612,286.15158 299.45343,279.19074 C 298.9846,276.06094 296.14246,272.99796 292.53613,272.25669 C 288.92979,271.51543 264.37335,271.82393 262.93081,271.82393 C 261.48828,271.82393 254.3662,272.32401 251.29673,275.03535 z" id="path5574" sodipodi:nodetypes="csscssssssss"/>
    <path style="fill:#e3e2db;fill-rule:evenodd;stroke:#000000;stroke-width:1.18792856000000000;stroke-linecap:butt;stroke-linejoin:miter;stroke-miterlimit:4;stroke-dasharray:none;stroke-opacity:1;fill-opacity:1" d="M 253.26468,272.35585 C 253.26468,272.35585 281.06697,270.59426 284.64298,271.55904 C 288.219,272.52381 291.38805,273.37704 292.95255,277.23613 C 294.51706,281.09522 295.31442,290.79568 294.82219,298.61563 C 293.17042,298.50119 293.77278,298.53514 292.21714,298.56008 C 292.03885,293.51874 292.28204,289.9777 291.64643,285.80753 C 290.96617,281.34448 290.70592,278.02105 285.56541,275.85032 C 280.42489,273.67957 249.59404,275.42056 249.59404,275.42056 L 253.26468,272.35585 z" id="path5591" sodipodi:nodetypes="cssccsscc"/>
    <path style="fill:#e3e2db;fill-opacity:1;fill-rule:evenodd;stroke:#000000;stroke-width:1.18792856000000000;stroke-linecap:butt;stroke-linejoin:miter;stroke-miterlimit:4;stroke-dasharray:none;stroke-opacity:1" d="M 295.41173,303.05122 L 292.19078,303.16174 C 292.19078,303.16174 289.58659,309.13948 289.16999,312.7553 C 288.74352,316.45672 291.93681,316.84724 294.1219,316.74866 C 296.56642,316.63837 299.17836,314.51207 298.70405,312.777 C 297.55967,308.59077 295.41173,303.05122 295.41173,303.05122 z M 292.84998,310.70779 C 293.22224,310.55645 294.80453,310.48124 295.27861,310.80496 C 295.81547,311.17155 296.31821,312.2146 295.99702,313.09867 C 295.67583,313.98273 294.95518,314.46489 293.67259,314.56134 C 292.39,314.65778 291.86009,313.74924 291.65444,312.86839 C 291.44879,311.98755 292.3869,310.89603 292.84998,310.70779 z" id="path5597" sodipodi:nodetypes="ccsssccsssss"/>
    <path style="fill:#e3e2db;fill-opacity:1;fill-rule:evenodd;stroke:#000000;stroke-width:1.18792856000000000;stroke-linecap:butt;stroke-linejoin:miter;stroke-miterlimit:4;stroke-dasharray:none;stroke-opacity:1" d="M 292.03754,298.74623 C 292.03754,298.74623 290.83291,299.81034 290.19083,301.51786 C 289.54875,303.22538 288.78597,305.4141 289.81809,305.96139 C 290.85021,306.50868 291.89683,303.63894 293.91158,303.63894 C 295.10724,303.63894 296.74597,305.44229 297.75475,304.96923 C 298.76353,304.49618 297.90161,302.55808 296.98436,300.97429 C 296.06711,299.3905 295.01995,298.76168 295.01995,298.76168 L 292.03754,298.74623 z" id="path5595" sodipodi:nodetypes="cssssscc"/>
    <path style="fill:#000000;fill-rule:evenodd;stroke:#000000;stroke-width:0.97664475px;stroke-linecap:butt;stroke-linejoin:miter;stroke-opacity:1" d="M 250.0765,337.7322 C 248.5025,342.34858 239.8662,353.47151 239.3097,357.49192 C 238.4878,363.42958 238.8145,379.91242 238.9368,387.45265 C 239.0789,396.21543 246.6741,425.10206 248.4322,428.69395 C 250.2838,432.477 252.3737,439.05099 262.6475,439.26808 C 266.4096,439.3494 272.5359,440.81236 285.2916,441.19673 C 289.3946,441.3177 299.2776,440.9133 303.2132,440.60012 C 307.8465,440.73629 304.3513,426.46216 303.2197,421.10983 C 302.4116,417.28783 302.1142,400.80865 302.712,389.90982 C 303.2852,379.46111 308.083,359.18619 308.8758,351.40332 C 309.2474,347.75475 309.046,343.49744 307.7792,342.1348 C 305.6683,339.86408 303.1069,340.07388 300.716,339.50413 C 298.3251,338.93438 275.5548,339.69698 271.3294,339.74894 C 268.3261,339.78666 257.074,339.71355 250.0765,337.7322 z" id="path10045" sodipodi:nodetypes="cssssscssssssc"/>
    <path style="fill:#986601;fill-opacity:1;fill-rule:evenodd;stroke:#000000;stroke-width:0.8972885px;stroke-linecap:butt;stroke-linejoin:miter;stroke-opacity:1" d="M 251.30156,342.817 C 248.94129,344.57233 244.99507,349.81632 242.71023,357.0892 C 241.0488,362.3777 242.00456,386.71321 242.11614,393.68796 C 242.24583,401.79357 248.41509,422.67514 250.01938,425.99766 C 251.70906,429.497 253.61614,435.57795 262.99124,435.77877 C 266.42432,435.85399 272.01471,437.20723 283.65473,437.56278 C 287.39884,437.67468 296.41729,437.30061 300.00867,437.01092 C 304.23672,437.13688 301.04725,423.93324 300.01463,418.98231 C 299.27725,415.44694 299.0058,400.20363 299.55137,390.12217 C 300.07441,380.45707 304.45257,361.70268 305.17595,354.50348 C 305.51507,351.12854 305.33127,347.19052 304.17534,345.93007 C 302.24908,343.82964 299.91173,344.0237 297.72996,343.49669 C 295.54818,342.96966 275.43254,343.10685 271.57668,343.15491 C 268.8361,343.1898 252.98505,341.56498 251.30156,342.817 z" id="path10049" sodipodi:nodetypes="cssssscsssssss"/>
    <path sodipodi:nodetypes="cssccsscc" id="path10051" d="M 301.4935,343.24813 C 293.8551,346.9256 291.919,348.33673 287.8563,355.3999 C 285.1274,360.14432 282.9054,372.66748 282.4991,377.24896 C 279.8885,406.68897 292.0322,424.85257 291.5389,432.67251 C 289.8872,432.55808 289.5529,432.59202 287.9972,432.61696 C 288.7946,423.02449 277.8004,408.53252 279.4345,378.82337 C 279.6667,374.60091 279.531,362.12746 287.1276,350.75279 C 291.2017,344.65249 296.4501,343.23247 296.4501,343.23247 L 301.4935,343.24813 z" style="fill:#e3e2db;fill-rule:evenodd;stroke:#000000;stroke-width:1.18792856;stroke-linecap:butt;stroke-linejoin:miter;stroke-miterlimit:4;stroke-dasharray:none;stroke-opacity:1"/>
    <g id="g10057" transform="translate(-298.5842,292.33038)">
      <path style="fill:#e3e2db;fill-opacity:1;fill-rule:evenodd;stroke:#000000;stroke-width:1.18792856;stroke-linecap:butt;stroke-linejoin:miter;stroke-miterlimit:4;stroke-dasharray:none;stroke-opacity:1" d="M 581.24066,99.283709 L 578.01971,99.394221 C 578.01971,99.394221 575.41552,105.37197 574.99892,108.98779 C 574.57245,112.68921 577.76574,113.07972 579.95083,112.98114 C 582.39535,112.87085 585.00729,110.74455 584.53298,109.00948 C 583.3886,104.82325 581.24066,99.283709 581.24066,99.283709 z M 578.67891,106.94027 C 579.05117,106.78894 580.63346,106.71372 581.10754,107.03744 C 581.6444,107.40404 582.14714,108.44708 581.82595,109.33115 C 581.50476,110.21522 580.78411,110.69738 579.50152,110.79382 C 578.21893,110.89027 577.68902,109.98173 577.48337,109.10088 C 577.27772,108.22003 578.21583,107.12852 578.67891,106.94027 z" id="path10053" sodipodi:nodetypes="ccsssccsssss"/>
      <path style="fill:#e3e2db;fill-opacity:1;fill-rule:evenodd;stroke:#000000;stroke-width:1.18792856;stroke-linecap:butt;stroke-linejoin:miter;stroke-miterlimit:4;stroke-dasharray:none;stroke-opacity:1" d="M 577.86647,94.978719 C 577.86647,94.978719 576.66184,96.042825 576.01976,97.750346 C 575.37768,99.457866 574.6149,101.64658 575.64702,102.19388 C 576.67914,102.74117 577.72576,99.871427 579.74051,99.871427 C 580.93617,99.871427 582.5749,101.67477 583.58368,101.20172 C 584.59246,100.72867 583.73054,98.790565 582.81329,97.206778 C 581.89604,95.62299 580.84888,94.994168 580.84888,94.994168 L 577.86647,94.978719 z" id="path10055" sodipodi:nodetypes="cssssscc"/>
    </g>
    <g id="g14642" transform="translate(-637.9028,293.43408)" style="fill:#556b2f">
      <path sodipodi:nodetypes="cssscsccssssssc" id="path11953" d="M 967.26303,177.02452 C 974.59888,178.95446 991.15673,178.67748 998.80572,178.46742 C 1004.0291,178.32397 1039.0652,180.15896 1058.2412,172.73341 C 1067.0197,169.33411 1072.2002,165.43372 1074.4767,161.37686 C 1076.4796,157.80748 1076.3037,145.62599 1076.3038,145.62598 C 1076.3038,145.62598 1078.6837,82.259886 1077.3124,66.579431 C 1075.9017,50.448038 1075.8426,19.603723 1073.7546,8.2664252 C 1011.665,6.8837962 986.89913,10.944847 950.86424,8.0242442 C 951.97493,18.167731 952.79371,25.08931 953.77125,28.375549 C 954.7487,31.661792 952.90066,53.000642 952.52342,63.982833 C 952.22271,72.737103 949.06931,82.434347 949.071,93.660594 C 949.07268,105.15073 948.63803,108.76095 948.82773,115.76683 C 948.98761,121.63694 947.84756,128.52893 948.58148,136.69361 C 949.24276,144.04972 950.44898,149.99724 954.2502,159.85714 C 958.55601,171.02584 967.74071,178.11154 967.26303,177.02452 z" style="opacity:1;fill:#556b2f;fill-opacity:1;fill-rule:evenodd;stroke:#000000;stroke-width:2.71445799000000010;stroke-linecap:butt;stroke-linejoin:miter;stroke-miterlimit:4;stroke-dasharray:none;stroke-opacity:1"/>
      <path sodipodi:nodetypes="csssssccssssc" id="path11960" d="M 973.75698,176.2822 C 980.36798,178.02144 994.48328,176.96548 1001.3764,176.77617 C 1006.0839,176.6469 1037.658,178.30057 1054.9392,171.60874 C 1059.5331,169.82981 1065.5637,164.25374 1068.7431,158.9899 C 1071.0387,155.18916 1071.2441,146.80813 1071.2171,143.74756 C 1071.0505,124.83407 1073.3618,90.074897 1072.1259,75.943823 C 1070.8546,61.406369 1069.5918,17.886041 1067.7102,7.6689785 C 1011.7557,6.4229655 992.66238,9.2763997 959.78488,8.2570735 C 962.39848,18.20463 962.43978,55.782698 961.39418,66.079437 C 959.81828,81.597924 956.97238,110.73202 957.14328,117.04565 C 957.28728,122.33573 956.25988,133.3848 956.92138,140.74273 C 957.51728,147.37197 957.79788,151.11913 961.22348,160.00478 C 965.10388,170.0699 974.18738,177.26181 973.75698,176.2822 z" style="opacity:1;fill:#556b2f;fill-rule:evenodd;stroke:#000000;stroke-width:2.44624329000000000;stroke-linecap:butt;stroke-linejoin:miter;stroke-miterlimit:4;stroke-dasharray:none;stroke-opacity:1"/>
    </g>
    <path style="fill:#e6e6e6;fill-rule:evenodd;stroke:#000000;stroke-width:2.12407708;stroke-linecap:butt;stroke-linejoin:miter;stroke-miterlimit:4;stroke-dasharray:none;stroke-opacity:1" d="M 310.5296,372.34548 L 324.5991,373.0984 C 324.5991,373.0984 325.5613,381.7584 323.0834,383.29234 C 321.3056,384.39289 319.2612,384.29109 319.2612,384.29109 L 318.7893,389.97312 L 322.5482,389.9099 L 322.0131,395.26323 L 308.688,394.50188 L 308.924,389.90007 L 313.037,389.80034 L 313.464,384.17309 C 313.464,384.17309 310.5759,384.00031 309.632,381.28642 C 308.688,378.57253 310.6476,372.46347 310.5296,372.34548 z" id="path14681" sodipodi:nodetypes="ccsccccccccsc"/>
    <path style="fill:#e6e6e6;fill-rule:evenodd;stroke:#000000;stroke-width:2.12407708;stroke-linecap:butt;stroke-linejoin:miter;stroke-miterlimit:4;stroke-dasharray:none;stroke-opacity:1" d="M 430.7949,362.48844 L 442.1016,361.71826 C 442.1016,361.71826 442.5135,367.51979 442.5225,373.60882 C 442.5316,379.69785 441.9484,385.12771 441.9484,385.12771 L 430.4608,385.48944 L 430.7791,380.53984 L 434.1005,380.4531 L 433.8484,375.1887 C 433.8484,375.1887 431.6455,374.43997 430.4696,371.81821 C 429.2938,369.19646 430.9227,362.59576 430.7949,362.48844 z" id="path15568" sodipodi:nodetypes="cczcccccsc"/>
    <path style="fill:#986601;fill-opacity:1;fill-rule:evenodd;stroke:#000000;stroke-width:1.00973308px;stroke-linecap:butt;stroke-linejoin:miter;stroke-opacity:1" d="M 327.53472,306.16558 C 327.53472,306.16558 328.80933,335.51481 328.89845,339.91484 C 329.04474,346.997 329.56751,359.15722 333.07746,361.07682 C 337.05894,363.25431 342.70218,363.34598 348.67743,363.31783 C 356.55883,363.28071 365.78476,363.13926 378.35999,362.26776 C 399.38887,360.81038 416.26298,363.38489 424.36534,358.68466 C 427.69047,356.75574 427.72356,353.29047 427.76825,348.39021 C 427.89141,335.06635 424.36606,302.02116 424.22408,300.11136 C 421.97143,300.59918 397.67279,296.49755 372.08699,297.90219 C 349.08286,299.16509 327.39317,306.32249 327.53472,306.16558 z" id="path22048" sodipodi:nodetypes="csssssscsc"/>
    <path style="fill:#986601;fill-opacity:1;fill-rule:evenodd;stroke:#000000;stroke-width:1.00973308px;stroke-linecap:butt;stroke-linejoin:miter;stroke-opacity:1" d="M 327.90079,306.0843 C 327.90079,306.0843 328.53179,335.80125 328.62092,340.20128 C 328.7672,347.28344 330.32602,357.20733 331.9987,359.94611 C 333.67137,362.68489 337.126,363.9305 341.45126,362.74434 C 345.77652,361.55818 350.51018,359.34687 351.5409,353.93914 C 352.57161,348.53141 350.53963,333.68009 350.08576,329.57631 C 349.54289,324.66776 347.41093,308.85117 346.86558,301.51544 C 342.58758,302.44185 327.60182,306.41574 327.90079,306.0843 z" id="path22046" sodipodi:nodetypes="cssssscc"/>
    <path style="fill:#e3e2db;fill-rule:evenodd;stroke:#000000;stroke-width:1.00973307999999990px;stroke-linecap:butt;stroke-linejoin:miter;stroke-opacity:1;fill-opacity:1" d="M 335.54155,304.00874 L 338.02552,303.45207 L 340.59981,360.87244 L 337.81427,361.19417 L 335.54155,304.00874 z" id="path22936" sodipodi:nodetypes="ccccc"/>
    <path sodipodi:nodetypes="ccsssccsssss" id="path22949" d="M 339.8175,339.41806 L 336.59466,339.40946 C 336.59466,339.40946 333.77133,345.28688 333.22138,348.88483 C 332.65841,352.56796 335.83509,353.07622 338.02233,353.05846 C 340.46925,353.03859 343.15799,351.01027 342.74813,349.25886 C 341.75924,345.0332 339.8175,339.41806 339.8175,339.41806 z M 336.97453,346.97471 C 337.35213,346.83724 338.93612,346.82055 339.39791,347.16157 C 339.92086,347.54776 340.3847,348.60867 340.03106,349.48027 C 339.67742,350.35186 338.93944,350.80706 337.65416,350.85603 C 336.36888,350.90501 335.87291,349.97751 335.69996,349.08966 C 335.527,348.20181 336.50481,347.14572 336.97453,346.97471 z" style="fill:#e3e2db;fill-opacity:1;fill-rule:evenodd;stroke:#000000;stroke-width:1.1879288;stroke-linecap:butt;stroke-linejoin:miter;stroke-miterlimit:4;stroke-dasharray:none;stroke-opacity:1"/>
    <path sodipodi:nodetypes="cssssscc" id="path22951" d="M 336.60471,334.99131 C 336.60471,334.99131 335.36158,336.01016 334.65683,337.69279 C 333.95209,339.37541 333.10894,341.53444 334.12013,342.11951 C 335.13132,342.70457 336.28328,339.87547 338.29665,339.94993 C 339.4915,339.99412 341.06246,341.85679 342.08803,341.42135 C 343.11361,340.9859 342.3239,339.01727 341.46581,337.40066 C 340.60772,335.78406 339.58452,335.11697 339.58452,335.11697 L 336.60471,334.99131 z" style="fill:#e3e2db;fill-opacity:1;fill-rule:evenodd;stroke:#000000;stroke-width:1.1879288;stroke-linecap:butt;stroke-linejoin:miter;stroke-miterlimit:4;stroke-dasharray:none;stroke-opacity:1"/>
    <g id="g14638" transform="translate(-556.0895,348.89595)" style="fill:#556b2f">
      <path sodipodi:nodetypes="cssssssssssssssccsssss" id="path10973" d="M 843.33988,-129.41211 C 841.7223,-127.36516 836.80109,-127.34758 837.77759,-127.10346 C 838.25336,-126.98451 841.03499,-124.66044 844.28108,-121.58399 C 847.69754,-118.34608 850.67159,-113.09164 852.40898,-110.04964 C 854.96956,-105.56629 859.87097,-91.507002 863.29856,-76.415773 C 864.53308,-70.980377 865.66549,-62.088331 866.75137,-55.814826 C 868.771,-44.146765 870.38263,-33.734063 870.80159,-32.171693 C 871.7946,-28.468538 874.92464,-28.618364 878.7185,-29.801513 C 883.60472,-31.325323 904.48483,-35.343742 911.19382,-35.462456 C 917.88041,-35.579139 936.56607,-36.764704 945.84605,-36.201485 C 960.46565,-35.308589 978.49973,-31.866598 981.18511,-31.622473 C 983.87048,-31.378348 993.15849,-29.718118 992.7392,-37.621046 C 992.43189,-43.413278 991.49286,-52.638284 990.80568,-57.073423 C 989.97763,-62.417745 987.48207,-87.727199 986.45238,-92.976426 C 985.16566,-99.535949 983.90977,-103.41534 982.42447,-108.20155 C 980.90147,-113.10927 979.19925,-119.07986 976.6467,-122.9395 C 967.95664,-124.18271 971.56666,-125.72487 966.96729,-129.68693 C 965.24269,-131.20922 953.1792,-135.79795 942.27532,-139.57853 C 935.79527,-141.82529 929.7889,-142.85368 922.66885,-143.47256 C 902.62191,-145.21504 881.67817,-143.35582 876.27875,-142.98717 C 871.1121,-142.63441 850.51959,-139.11311 848.0769,-136.91758 C 845.66424,-134.74903 844.3956,-130.74807 843.33988,-129.41211 z" style="fill:#556b2f;fill-opacity:1;fill-rule:evenodd;stroke:#000000;stroke-width:2;stroke-linecap:butt;stroke-linejoin:miter;stroke-miterlimit:4;stroke-dasharray:none;stroke-opacity:1"/>
      <path sodipodi:nodetypes="cssssssscsssss" id="path11879" d="M 846.93009,-127.00135 C 867.82434,-108.23963 869.5101,-73.753026 871.52251,-57.593078 C 872.34863,-50.959209 875.0717,-29.363827 878.86556,-30.546976 C 883.75178,-32.070787 904.63189,-36.089205 911.34088,-36.207919 C 918.02747,-36.324602 936.71313,-37.510167 945.99311,-36.946948 C 960.61271,-36.054053 979.34071,-33.022184 981.93914,-32.301724 C 989.74507,-30.137387 985.45761,-44.382699 984.70555,-54.966727 C 983.89344,-66.395666 980.9377,-84.135321 979.23169,-91.670336 C 977.62493,-98.766946 971.71372,-122.45332 967.11435,-130.43239 C 965.38975,-131.95468 953.32626,-136.54342 942.42238,-140.32399 C 935.94233,-142.57076 929.93596,-143.59915 922.81591,-144.21803 C 902.76897,-145.96051 881.82523,-144.10129 876.42581,-143.73264 C 871.25916,-143.37988 850.68566,-139.83723 848.22396,-137.66304 C 841.22043,-131.47749 842.26859,-131.18709 846.93009,-127.00135 z" style="fill:#556b2f;fill-opacity:1;fill-rule:evenodd;stroke:#000000;stroke-width:2;stroke-linecap:butt;stroke-linejoin:miter;stroke-miterlimit:4;stroke-dasharray:none;stroke-opacity:1"/>
    </g>
    <path style="fill:#986601;fill-opacity:1;fill-rule:evenodd;stroke:#000000;stroke-width:1px;stroke-linecap:butt;stroke-linejoin:miter;stroke-opacity:1" d="M 361.7947,469.65025 C 353.0906,469.66978 343.1888,471.30559 335.7679,465.63782 C 328.9051,460.67315 324.4202,452.41651 324.9392,443.84987 C 324.8848,434.44186 325.0955,424.72565 328.3301,415.78993 C 331.5369,407.21325 338.4072,399.99109 347.2182,397.17423 C 361.434,391.50839 377.062,391.04277 392.1595,391.57755 C 402.709,392.49735 413.7806,394.62649 422.3679,401.19103 C 427.9919,407.22633 428.1394,416.00698 429.3925,423.70357 C 430.5089,434.3462 431.0814,446.43096 424.2371,455.40549 C 418.0878,463.35503 407.9737,467.21759 398.131,467.39493 C 386.0595,468.67172 373.9338,469.47542 361.7947,469.65025 z" id="path23118"/>
    <path style="fill:#795100;fill-opacity:1;fill-rule:evenodd;stroke:#000000;stroke-width:0.86651361000000005px;stroke-linecap:butt;stroke-linejoin:miter;stroke-opacity:1" d="M 364.3603,469.74532 C 356.4912,469.80056 347.4053,471.24362 340.9529,465.60902 C 335.2116,461.09447 331.8089,453.83562 332.4214,446.51055 C 332.4048,435.53168 332.8189,423.32551 340.387,414.58455 C 345.9932,407.77934 354.9725,405.46832 363.2102,403.62356 C 373.676,401.78655 384.4509,401.39882 395.0106,402.5629 C 402.9113,403.64582 411.2201,405.65143 417.3689,410.99207 C 422.1138,416.96846 422.1166,425.01293 423.1451,432.22532 C 424.1088,441.74894 423.7814,452.8445 416.2733,459.84787 C 410.6314,465.47623 402.5589,467.7127 394.7777,467.90561 C 384.6697,468.93456 374.521,469.6014 364.3603,469.74532 z" id="path23120"/>
    <path style="fill:#986601;fill-opacity:1;fill-rule:evenodd;stroke:#000000;stroke-width:0.79624969px;stroke-linecap:butt;stroke-linejoin:miter;stroke-opacity:1" d="M 367.7101,469.79536 C 360.2252,469.89842 351.4965,471.16507 345.5668,465.46298 C 340.593,461.27857 337.7595,454.74329 338.391,448.24146 C 338.2286,437.54817 338.9916,425.30208 347.2309,417.45481 C 353.7949,411.38285 362.9935,409.60388 371.5415,408.26295 C 384.1352,406.96575 397.3741,406.68192 409.3251,411.45843 C 413.4761,413.13762 417.626,415.74618 418.9771,420.28337 C 421.2856,427.06294 421.707,434.34987 422.0666,441.45193 C 422.3439,449.2239 420.0604,457.68455 413.4596,462.4257 C 407.0789,467.66468 398.5374,467.99315 390.6981,468.57572 C 383.0528,469.24796 375.3849,469.68968 367.7101,469.79536 z" id="path23122"/>
    <g id="g2912" style="fill:#8f6000;fill-opacity:1;stroke:none">
      <path sodipodi:nodetypes="cssssss" id="path20103" d="M 451.33401,309.80911 C 451.57491,298.51885 452.27525,287.34898 450.58033,278.51393 C 448.88542,269.67888 442.95894,263.05903 439.90906,262.93805 C 436.85918,262.81708 435.99251,274.74677 439.09295,286.7321 C 442.1934,298.71743 442.14535,308.05191 441.80286,315.98629 C 441.59709,320.64841 442.02679,340.04417 446.49133,329.90617 C 450.95587,319.76817 451.2244,315.02564 451.33401,309.80911 z" style="fill:#8f6000;fill-opacity:1;fill-rule:evenodd;stroke:none;stroke-width:1px;stroke-linecap:butt;stroke-linejoin:miter;stroke-opacity:1"/>
      <path sodipodi:nodetypes="cssssz" id="path20105" d="M 446.39697,384.33205 C 446.04017,390.83779 446.51815,390.98247 449.83467,387.07745 C 452.89285,383.47662 449.58024,398.03992 453.25612,410.48049 C 457.6441,425.33105 456.621,384.47827 456.3728,379.14968 C 455.977,370.70421 445.87792,361.14187 446.56466,372.74437 C 446.75258,375.91932 446.74472,377.99112 446.39697,384.33205 z" style="fill:#8f6000;fill-opacity:1;fill-rule:evenodd;stroke:none;stroke-width:1px;stroke-linecap:butt;stroke-linejoin:miter;stroke-opacity:1"/>
      <path sodipodi:nodetypes="csssssssssz" id="path5584" d="M 251.9954,281.25061 C 247.34423,284.05044 243.97451,302.13336 245.23381,309.29002 C 245.9454,313.33404 245.89913,316.19229 247.35178,319.40819 C 249.55857,324.29361 252.49439,330.52881 255.26795,331.75043 C 259.86724,333.7762 266.77569,334.2615 275.31724,333.58624 C 283.8588,332.91099 295.93433,333.83702 299.30247,329.86908 C 302.67061,325.90113 280.43261,327.52091 283.48281,317.54402 C 286.60387,307.33536 269.61941,317.67831 267.12004,314.20027 C 264.93875,311.16486 270.45902,295.53644 262.13842,300.66261 C 251.27505,307.35532 256.03068,295.4179 255.26795,291.38596 C 254.59825,287.84574 256.52366,278.52477 251.9954,281.25061 z" style="fill:#8f6000;fill-rule:evenodd;stroke:none;stroke-width:1.01376569000000010px;stroke-linecap:butt;stroke-linejoin:miter;stroke-opacity:1;fill-opacity:1"/>
      <path sodipodi:nodetypes="cssssss" id="path10061" d="M 292.19104,390.43393 C 293.73267,393.10357 293.77501,395.80056 294.44131,399.6961 C 295.4413,405.54265 294.74054,407.08555 295.78604,412.71486 C 297.01162,419.3137 295.71125,428.9307 294.00543,419.98699 C 292.41984,411.65347 288.12512,409.27316 287.94287,407.17743 C 287.69642,404.34349 291.65938,404.28846 290.48215,400.32328 C 289.33946,396.47447 291.22491,388.76088 292.19104,390.43393 z" style="fill:#8f6000;fill-opacity:1;fill-rule:evenodd;stroke:none;stroke-width:0.52179092000000005px;stroke-linecap:butt;stroke-linejoin:miter;stroke-opacity:1"/>
      <path sodipodi:nodetypes="cssszsssz" id="path10948" d="M 253.19512,347.27675 C 248.54395,350.07658 247.12822,355.12655 246.39833,363.32702 C 245.72902,370.84694 246.90208,385.91108 247.14153,395.91063 C 247.29263,402.22049 249.66756,411.29052 253.15326,420.03128 C 255.62777,426.23639 259.2184,429.24006 271.87987,431.75702 C 299.8535,437.31785 264.82944,425.87172 260.55877,416.35313 C 254.34095,402.49467 253.78392,376.18924 258.49697,359.14421 C 261.89745,346.84616 279.89688,352.34366 279.13415,348.31172 C 278.46445,344.7715 257.72338,344.55091 253.19512,347.27675 z" style="fill:#8f6000;fill-rule:evenodd;stroke:none;stroke-width:1.01376569000000010px;stroke-linecap:butt;stroke-linejoin:miter;stroke-opacity:1;fill-opacity:1"/>
      <path style="fill:#8f6000;fill-opacity:1;fill-rule:evenodd;stroke:none;stroke-width:1px;stroke-linecap:butt;stroke-linejoin:miter;stroke-opacity:1" d="M 372.8483,339.5013 C 373.9009,328.86315 381.7084,343.66434 384.8233,346.96398 C 388.8797,351.26089 415.1026,351.38809 416.2245,352.9468 C 419.2941,357.21165 402.6026,357.44846 397.1377,357.86468 C 383.8052,358.88013 360.088,358.2438 355.2811,358.24187 C 354.142,358.24141 353.3735,357.09212 353.7837,355.71106 C 355.2599,350.74118 355.0947,342.94119 354.1649,337.13957 C 353.3261,331.90447 351.6462,325.53313 351.5782,322.02371 C 351.513,318.65246 353.6102,318.43016 355.3155,320.68484 C 358.4052,324.76994 371.795,350.14491 372.8483,339.5013 z" id="path22993" sodipodi:nodetypes="cssssssssz"/>
      <path sodipodi:nodetypes="cssscsz" id="path24032" d="M 365.4522,398.34507 C 362.8186,394.75057 354.1266,397.61587 349.1068,399.84711 C 346.6049,400.95914 340.8946,403.32463 338.3738,406.03631 C 335.6778,408.93646 332.5245,413.59586 330.8947,417.66213 C 329.7546,420.50667 328.6588,428.03207 327.6058,442.3244 C 331.4699,422.28355 334.0939,414.05608 340.4288,409.50618 C 353.1699,400.35503 367.9843,401.80115 365.4522,398.34507 z" style="fill:#8f6000;fill-rule:evenodd;stroke:none;stroke-width:0.68500572000000004px;stroke-linecap:butt;stroke-linejoin:miter;stroke-opacity:1;fill-opacity:1"/>
    </g>
    <path sodipodi:nodetypes="cssssssssz" id="path24034" d="M 366.5579,433.59674 C 367.6105,422.95859 378.4146,447.12424 381.5295,450.42389 C 385.5859,454.72079 411.8088,454.84799 412.9307,456.40671 C 416.0003,460.67155 399.3088,460.90836 393.8439,461.32458 C 380.5114,462.34004 364.2858,462.82579 359.4789,462.82551 C 351.5974,462.82506 344.9748,463.08393 344.4196,443.61019 C 344.2685,438.31047 348.3524,428.99303 348.2844,425.48362 C 348.2192,422.11237 350.3164,421.89007 352.0217,424.14475 C 353.3377,425.88468 352.4018,437.48003 356.8295,439.1451 C 364.4285,442.00276 365.9532,439.70701 366.5579,433.59674 z" style="fill:#986601;fill-opacity:1;fill-rule:evenodd;stroke:none;stroke-width:1px;stroke-linecap:butt;stroke-linejoin:miter;stroke-opacity:1"/>
    <g style="fill:#e3e2db;fill-opacity:1" id="g24036" transform="translate(-202.0203,318.91529)">
      <g style="fill:#e3e2db;fill-opacity:1" id="g24048" transform="matrix(0.960796,0.277257,-0.277257,0.960796,53.06291,-162.1161)">
        <path sodipodi:nodetypes="ccsssccsssss" id="path24038" d="M 581.24066,99.283709 L 578.01971,99.394221 C 578.01971,99.394221 575.41552,105.37197 574.99892,108.98779 C 574.57245,112.68921 577.76574,113.07972 579.95083,112.98114 C 582.39535,112.87085 585.00729,110.74455 584.53298,109.00948 C 583.3886,104.82325 581.24066,99.283709 581.24066,99.283709 z M 578.67891,106.94027 C 579.05117,106.78894 580.63346,106.71372 581.10754,107.03744 C 581.6444,107.40404 582.14714,108.44708 581.82595,109.33115 C 581.50476,110.21522 580.78411,110.69738 579.50152,110.79382 C 578.21893,110.89027 577.68902,109.98173 577.48337,109.10088 C 577.27772,108.22003 578.21583,107.12852 578.67891,106.94027 z" style="fill:#e3e2db;fill-opacity:1;fill-rule:evenodd;stroke:#000000;stroke-width:1.18792856000000000;stroke-linecap:butt;stroke-linejoin:miter;stroke-miterlimit:4;stroke-dasharray:none;stroke-opacity:1"/>
        <path sodipodi:nodetypes="cssssscc" id="path24040" d="M 577.86647,94.978719 C 577.86647,94.978719 576.66184,96.042825 576.01976,97.750346 C 575.37768,99.457866 574.6149,101.64658 575.64702,102.19388 C 576.67914,102.74117 577.72576,99.871427 579.74051,99.871427 C 580.93617,99.871427 582.5749,101.67477 583.58368,101.20172 C 584.59246,100.72867 583.73054,98.790565 582.81329,97.206778 C 581.89604,95.62299 580.84888,94.994168 580.84888,94.994168 L 577.86647,94.978719 z" style="fill:#e3e2db;fill-opacity:1;fill-rule:evenodd;stroke:#000000;stroke-width:1.18792856000000000;stroke-linecap:butt;stroke-linejoin:miter;stroke-miterlimit:4;stroke-dasharray:none;stroke-opacity:1"/>
      </g>
    </g>
    <g style="fill:#e3e2db;fill-opacity:1" id="g24042" transform="matrix(0.937705,-0.347432,0.347432,0.937705,-190.656,529.31178)">
      <path style="fill:#e3e2db;fill-opacity:1;fill-rule:evenodd;stroke:#000000;stroke-width:1.18792856000000000;stroke-linecap:butt;stroke-linejoin:miter;stroke-miterlimit:4;stroke-dasharray:none;stroke-opacity:1" d="M 581.24066,99.283709 L 578.01971,99.394221 C 578.01971,99.394221 575.41552,105.37197 574.99892,108.98779 C 574.57245,112.68921 577.76574,113.07972 579.95083,112.98114 C 582.39535,112.87085 585.00729,110.74455 584.53298,109.00948 C 583.3886,104.82325 581.24066,99.283709 581.24066,99.283709 z M 578.67891,106.94027 C 579.05117,106.78894 580.63346,106.71372 581.10754,107.03744 C 581.6444,107.40404 582.14714,108.44708 581.82595,109.33115 C 581.50476,110.21522 580.78411,110.69738 579.50152,110.79382 C 578.21893,110.89027 577.68902,109.98173 577.48337,109.10088 C 577.27772,108.22003 578.21583,107.12852 578.67891,106.94027 z" id="path24044" sodipodi:nodetypes="ccsssccsssss"/>
      <path style="fill:#e3e2db;fill-opacity:1;fill-rule:evenodd;stroke:#000000;stroke-width:1.18792856000000000;stroke-linecap:butt;stroke-linejoin:miter;stroke-miterlimit:4;stroke-dasharray:none;stroke-opacity:1" d="M 577.86647,94.978719 C 577.86647,94.978719 576.66184,96.042825 576.01976,97.750346 C 575.37768,99.457866 574.6149,101.64658 575.64702,102.19388 C 576.67914,102.74117 577.72576,99.871427 579.74051,99.871427 C 580.93617,99.871427 582.5749,101.67477 583.58368,101.20172 C 584.59246,100.72867 583.73054,98.790565 582.81329,97.206778 C 581.89604,95.62299 580.84888,94.994168 580.84888,94.994168 L 577.86647,94.978719 z" id="path24046" sodipodi:nodetypes="cssssscc"/>
    </g>
  </g>
  <metadata>
    <rdf:RDF>
      <cc:Work>
        <dc:format>image/svg+xml</dc:format>
        <dc:type rdf:resource="http://purl.org/dc/dcmitype/StillImage"/>
        <cc:license rdf:resource="http://creativecommons.org/licenses/publicdomain/"/>
        <dc:publisher>
          <cc:Agent rdf:about="http://openclipart.org/">
            <dc:title>Open Clip Art Library</dc:title>
          </cc:Agent>
        </dc:publisher>
        <dc:title>Backpack (Green/Brown)</dc:title>
        <dc:date>2008-02-04T06:14:38</dc:date>
        <dc:description>I tried to give the backpack a more natural look by using brown and green</dc:description>
        <dc:source>http://openclipart.org/detail/12526/backpack-(green/brown)-by-markc09</dc:source>
        <dc:creator>
          <cc:Agent>
            <dc:title>markc09</dc:title>
          </cc:Agent>
        </dc:creator>
        <dc:subject>
          <rdf:Bag>
            <rdf:li>backpack</rdf:li>
            <rdf:li>backpack</rdf:li>
            <rdf:li>bag</rdf:li>
            <rdf:li>bag</rdf:li>
            <rdf:li>clip art</rdf:li>
            <rdf:li>clipart</rdf:li>
            <rdf:li>colour</rdf:li>
            <rdf:li>colour</rdf:li>
            <rdf:li>contour</rdf:li>
            <rdf:li>contour</rdf:li>
            <rdf:li>hiking</rdf:li>
            <rdf:li>hiking</rdf:li>
            <rdf:li>image</rdf:li>
            <rdf:li>luggage</rdf:li>
            <rdf:li>luggage</rdf:li>
            <rdf:li>media</rdf:li>
            <rdf:li>outdoors</rdf:li>
            <rdf:li>outdoors</rdf:li>
            <rdf:li>outline</rdf:li>
            <rdf:li>outline</rdf:li>
            <rdf:li>png</rdf:li>
            <rdf:li>public domain</rdf:li>
            <rdf:li>remix</rdf:li>
            <rdf:li>svg</rdf:li>
            <rdf:li>travel</rdf:li>
            <rdf:li>travel</rdf:li>
            <rdf:li>trip</rdf:li>
            <rdf:li>trip</rdf:li>
          </rdf:Bag>
        </dc:subject>
      </cc:Work>
      <cc:License rdf:about="http://creativecommons.org/licenses/publicdomain/">
        <cc:permits rdf:resource="http://creativecommons.org/ns#Reproduction"/>
        <cc:permits rdf:resource="http://creativecommons.org/ns#Distribution"/>
        <cc:permits rdf:resource="http://creativecommons.org/ns#DerivativeWorks"/>
      </cc:License>
    </rdf:RDF>
  </metadata>
</svg>
