<svg xmlns="http://www.w3.org/2000/svg" xmlns:xlink="http://www.w3.org/1999/xlink" version="1.1" id="Layer_1" x="0px" y="0px" width="100px" height="81.75px" viewBox="0 -1.75 100 81.75" enable-background="new 0 -1.75 100 81.75" xml:space="preserve">
<path fill="#000000" d="M12.922,12.311C4.144,12.311,0,16.231,0,24.737v42.836C0,76.079,4.144,80,12.922,80h7.177V12.311H12.922z"/>
<path fill="#000000" d="M69.413,12.311C69.275,4.635,63.001-1.572,55.292-1.572H44.38c-7.709,0-13.982,6.208-14.117,13.883h-0.012  V80h39.174V12.311H69.413z M35.218,12.311c0.134-4.939,4.189-8.928,9.162-8.928h10.912c4.974,0,9.028,3.989,9.16,8.928H35.218z"/>
<path fill="#000000" d="M86.751,12.311h-7.163V80h7.163c8.777,0,12.92-3.921,12.92-12.427V24.737  C99.671,16.231,95.528,12.311,86.751,12.311z"/>
</svg>